<svg width="52" height="52" viewBox="0 0 52 52" fill="none" xmlns="http://www.w3.org/2000/svg">
<path opacity="0.4" d="M27.6657 26.0019C27.6657 26.3314 27.568 26.6534 27.385 26.9273C27.202 27.2013 26.9418 27.4148 26.6374 27.5409C26.333 27.6669 25.9981 27.6999 25.675 27.6356C25.3519 27.5714 25.055 27.4127 24.8221 27.1798C24.5891 26.9468 24.4305 26.65 24.3662 26.3269C24.3019 26.0038 24.3349 25.6688 24.461 25.3644C24.5871 25.0601 24.8006 24.7999 25.0745 24.6169C25.3484 24.4338 25.6705 24.3361 26 24.3361C26.4417 24.3361 26.8654 24.5116 27.1778 24.824C27.4902 25.1364 27.6657 25.5601 27.6657 26.0019Z" fill="#3CD495" stroke="#3CD495" stroke-width="0.314861"/>
<path opacity="0.2" d="M26 50C39.2548 50 50 39.2548 50 26C50 12.7452 39.2548 2 26 2C12.7452 2 2 12.7452 2 26C2 39.2548 12.7452 50 26 50Z" stroke="#3CD495" stroke-width="3" stroke-miterlimit="10" stroke-dasharray="27.99 61.06"/>
<path opacity="0.4" d="M26 50C39.2548 50 50 39.2548 50 26C50 12.7452 39.2548 2 26 2C12.7452 2 2 12.7452 2 26C2 39.2548 12.7452 50 26 50Z" fill="#031D18" stroke="#3CD495" stroke-miterlimit="10"/>
<path opacity="0.1" d="M39.6305 30.2197C41.9651 22.6871 37.7513 14.6882 30.2188 12.3536C22.6862 10.019 14.6873 14.2328 12.3527 21.7654C10.0181 29.2979 14.2318 37.2969 21.7644 39.6315C29.297 41.9661 37.2959 37.7523 39.6305 30.2197Z" stroke="white" stroke-miterlimit="10"/>
<path opacity="0.1" d="M31.2902 39.2406C38.6148 36.3183 42.1837 28.0116 39.2614 20.6869C36.3392 13.3623 28.0324 9.79341 20.7078 12.7157C13.3831 15.6379 9.81426 23.9446 12.7365 31.2693C15.6587 38.5939 23.9655 42.1628 31.2902 39.2406Z" stroke="#3CD495" stroke-width="2" stroke-miterlimit="10" stroke-dasharray="11.77 23.55"/>
<path d="M12.3458 32.1238C12.3458 32.1238 7.38577 20.3913 19.4243 17.1565C27.5506 14.9713 26.442 13.7185 25.0653 12.8741C22.4124 11.2463 24.7929 10.3558 26.8905 10.3349C27.4102 10.2993 27.4374 10.7811 26.4148 10.6575C24.4891 11.1415 25.2728 12.497 27.1398 13.3183C27.9256 13.6661 32.8794 16.572 25.5745 19.1573C15.7782 22.6226 40.1653 24.4453 40.662 33.0624C40.8715 36.8461 34.2917 39.796 24.8453 39.6619C15.0385 39.5216 12.3458 32.1238 12.3458 32.1238V32.1238Z" fill="#3CD495"/>
</svg>
