<svg width="52" height="52" viewBox="0 0 52 52" fill="none" xmlns="http://www.w3.org/2000/svg">
<path opacity="0.4" d="M27.6657 26.0019C27.6657 26.3314 27.568 26.6534 27.385 26.9273C27.202 27.2013 26.9418 27.4148 26.6374 27.5409C26.333 27.6669 25.9981 27.6999 25.675 27.6356C25.3519 27.5714 25.055 27.4127 24.8221 27.1798C24.5891 26.9468 24.4305 26.65 24.3662 26.3269C24.3019 26.0038 24.3349 25.6688 24.461 25.3644C24.5871 25.0601 24.8006 24.7999 25.0745 24.6169C25.3484 24.4338 25.6705 24.3361 26 24.3361C26.4417 24.3361 26.8654 24.5116 27.1778 24.824C27.4902 25.1364 27.6657 25.5601 27.6657 26.0019Z" fill="#3CD495" stroke="#3CD495" stroke-width="0.314861"/>
<path opacity="0.2" d="M26 50C39.2548 50 50 39.2548 50 26C50 12.7452 39.2548 2 26 2C12.7452 2 2 12.7452 2 26C2 39.2548 12.7452 50 26 50Z" stroke="#3CD495" stroke-width="3" stroke-miterlimit="10" stroke-dasharray="27.99 61.06"/>
<path opacity="0.4" d="M26 50C39.2548 50 50 39.2548 50 26C50 12.7452 39.2548 2 26 2C12.7452 2 2 12.7452 2 26C2 39.2548 12.7452 50 26 50Z" fill="#031D18" stroke="#3CD495" stroke-miterlimit="10"/>
<path opacity="0.1" d="M39.6305 30.2197C41.9651 22.6871 37.7513 14.6882 30.2188 12.3536C22.6862 10.019 14.6873 14.2328 12.3527 21.7654C10.0181 29.2979 14.2318 37.2969 21.7644 39.6315C29.297 41.9661 37.2959 37.7523 39.6305 30.2197Z" stroke="white" stroke-miterlimit="10"/>
<path opacity="0.1" d="M31.2902 39.2406C38.6148 36.3183 42.1837 28.0116 39.2614 20.6869C36.3392 13.3623 28.0324 9.79341 20.7078 12.7157C13.3831 15.6379 9.81426 23.9446 12.7365 31.2693C15.6587 38.5939 23.9655 42.1628 31.2902 39.2406Z" stroke="#3CD495" stroke-width="2" stroke-miterlimit="10" stroke-dasharray="11.77 23.55"/>
<path d="M26.9177 26.4537C26.9177 26.4537 23.1644 24.6169 20.1233 23.5532C19.5762 23.3619 12.5976 20.4662 17.5651 18.7118C18.5365 18.3696 20.7427 17.7445 24.8146 17.2046C26.0964 17.0349 28.5999 15.2393 25.947 13.8858C25.421 13.6169 24.5881 12.3388 28.0494 11.9519C28.8905 11.8583 30.347 9.72811 27.5644 10.502C24.7818 11.2751 26.3351 11.2751 24.8146 11.4686C23.2933 11.662 19.6062 12.8221 21.2557 13.4018C22.9058 13.9822 25.9149 14.4655 23.5205 15.3357C22.942 15.5452 18.7494 15.9608 15.9197 16.8505C13.7368 17.5364 9.70654 20.7177 12.0355 25.9704C13.0437 28.2431 17.3857 31.7428 18.2023 32.597C22.0579 36.6282 23.2333 39.6608 23.2135 39.6663H40.6668C40.6668 39.6663 37.0111 31.094 26.9177 26.4537Z" fill="#3CD495"/>
</svg>
