<svg width="36" height="54" viewBox="0 0 36 54" fill="none" xmlns="http://www.w3.org/2000/svg">
<ellipse cx="18.9619" cy="47.9459" rx="16.5405" ry="4.86487" fill="#FFC100" fill-opacity="0.1" stroke="#FFC100" stroke-width="0.602571" stroke-dasharray="1.51 3.01"/>
<g filter="url(#filter0_i_3_16124)">
<ellipse cx="18.962" cy="47.7514" rx="5.83784" ry="1.75135" fill="#FFC100" fill-opacity="0.58"/>
</g>
<ellipse cx="18.962" cy="47.7514" rx="5.83784" ry="1.75135" stroke="#FFC100" stroke-width="0.602571"/>
<path d="M33.3023 23C33.3023 31.2843 21.8591 43 18.6512 43C15.4433 43 4 31.2843 4 23C4 14.7157 10.5595 8 18.6512 8C26.7428 8 33.3023 14.7157 33.3023 23Z" fill="#FFC100"/>
<path d="M18.6512 34.8605C25.8436 34.8605 31.6744 29.2118 31.6744 22.2442C31.6744 15.2766 25.8436 9.62793 18.6512 9.62793C11.4588 9.62793 5.62793 15.2766 5.62793 22.2442C5.62793 29.2118 11.4588 34.8605 18.6512 34.8605Z" fill="#050C24" fill-opacity="0.8"/>
<path fill-rule="evenodd" clip-rule="evenodd" d="M25.04 23.6561L25.056 23.8161C25.064 23.9601 25.072 24.0961 25.096 24.2001V24.4161C25.096 24.4441 25.094 24.4741 25.092 24.5041C25.09 24.5341 25.088 24.5641 25.088 24.5921C25.084 24.6321 25.08 24.6701 25.076 24.7081C25.072 24.7461 25.068 24.7841 25.064 24.8241L25.056 24.8881C25.056 24.9201 25.056 24.9521 25.048 24.9841C25.0428 25.0407 25.0311 25.1007 25.0191 25.1618C25.0124 25.1956 25.0057 25.2299 25 25.2641L24.976 25.3601C24.96 25.4295 24.944 25.4917 24.928 25.5539C24.92 25.585 24.912 25.6161 24.904 25.6481L24.872 25.7521C24.848 25.8401 24.816 25.9281 24.784 26.0161L24.736 26.1441C24.72 26.1841 24.704 26.2221 24.688 26.2601C24.672 26.2981 24.656 26.3361 24.64 26.3761C24.608 26.4321 24.584 26.4801 24.56 26.5361L24.52 26.6081C24.508 26.6281 24.498 26.6481 24.488 26.6681C24.478 26.6881 24.468 26.7081 24.456 26.7281C24.4 26.8321 24.336 26.9361 24.264 27.0481L24.248 27.0801C24.152 27.2241 24.048 27.3681 23.928 27.5201L23.888 27.5761C23.768 27.7201 23.656 27.8481 23.544 27.9601L23.52 27.9841C23.4 28.1121 23.264 28.2321 23.128 28.3441L23.088 28.3761L23.056 28.4001C22.944 28.4881 22.832 28.5761 22.712 28.6561C22.692 28.6681 22.672 28.6821 22.652 28.6961C22.632 28.7101 22.612 28.7241 22.592 28.7361C22.464 28.8161 22.344 28.8881 22.216 28.9601L22.12 29.0161C22.1033 29.0244 22.0876 29.0328 22.0726 29.0408C22.0442 29.0558 22.0181 29.0697 21.992 29.0801L21.888 29.1281C21.8 29.1761 21.712 29.2161 21.616 29.2561C21.528 29.2961 21.44 29.3281 21.352 29.3601L21.232 29.4081C21.1985 29.4282 21.1539 29.4426 21.1122 29.4562C21.104 29.4589 21.0959 29.4615 21.088 29.4641C20.9984 29.494 20.9 29.5194 20.806 29.5436C20.7739 29.5519 20.7424 29.56 20.712 29.5681L20.656 29.5841C20.636 29.5881 20.616 29.5941 20.596 29.6001C20.576 29.6061 20.556 29.6121 20.536 29.6161C20.453 29.6356 20.373 29.6492 20.296 29.6623C20.2468 29.6706 20.1988 29.6788 20.152 29.6881L20.096 29.6961C20.072 29.7001 20.05 29.7041 20.028 29.7081C20.006 29.7121 19.984 29.7161 19.96 29.7201C19.9 29.7241 19.842 29.7301 19.784 29.7361C19.726 29.7421 19.668 29.7481 19.608 29.7521L19.544 29.7601C19.488 29.7681 19.432 29.7761 19.376 29.7761H18.776C18.7451 29.7723 18.7161 29.7703 18.6881 29.7683C18.658 29.7663 18.629 29.7643 18.6 29.7601L18.536 29.7521C18.416 29.7441 18.304 29.7361 18.184 29.7201C18.136 29.7121 18.088 29.7041 18.048 29.6961L17.992 29.6881C17.88 29.6721 17.744 29.6481 17.608 29.6161C17.5886 29.6161 17.5692 29.6103 17.5481 29.6039C17.5343 29.5997 17.5197 29.5953 17.504 29.5921L17.432 29.5761C17.407 29.5695 17.3817 29.5628 17.3561 29.5561C17.2587 29.5305 17.1573 29.5038 17.056 29.4721C17.032 29.4641 17.008 29.4541 16.984 29.4441C16.96 29.4341 16.936 29.4241 16.912 29.4161L16.792 29.3681C16.704 29.3361 16.616 29.3041 16.528 29.2641C16.432 29.2241 16.344 29.1841 16.256 29.1361L16.152 29.0881C16.1322 29.0783 16.1125 29.0697 16.0933 29.0615C16.0658 29.0496 16.0395 29.0383 16.016 29.0241L15.952 28.9841C15.9298 28.9713 15.9081 28.9588 15.8869 28.9465C15.7628 28.8749 15.6544 28.8124 15.552 28.7441L15.464 28.6801C15.32 28.5841 15.208 28.4961 15.096 28.4081L15.032 28.3601C14.896 28.2401 14.76 28.1201 14.632 27.9921C14.496 27.8561 14.384 27.7281 14.272 27.5921L14.224 27.5361C14.104 27.3841 14 27.2401 13.904 27.0961L13.888 27.0641C13.8288 26.9787 13.7804 26.8932 13.7296 26.8033C13.7185 26.7838 13.7074 26.7641 13.696 26.7441C13.688 26.7241 13.678 26.7061 13.668 26.6881C13.658 26.6701 13.648 26.6521 13.64 26.6321L13.6 26.5441C13.5783 26.5061 13.5602 26.4682 13.5434 26.4327C13.5354 26.4158 13.5277 26.3996 13.52 26.3841C13.504 26.3441 13.488 26.3061 13.472 26.2681C13.456 26.2301 13.44 26.1921 13.424 26.1521C13.416 26.1321 13.408 26.1101 13.4 26.0881C13.392 26.0661 13.384 26.0441 13.376 26.0241C13.344 25.9361 13.312 25.8481 13.288 25.7601C13.2846 25.7465 13.2797 25.733 13.2747 25.7188C13.2678 25.6995 13.2606 25.6791 13.256 25.6561C13.232 25.5681 13.208 25.4721 13.184 25.3761L13.16 25.2721C13.144 25.1841 13.128 25.0881 13.112 24.9921L13.096 24.8641C13.088 24.7761 13.08 24.6881 13.072 24.6081C13.064 24.5521 13.064 24.4881 13.064 24.4241V24.2241C13.064 24.0881 13.072 23.9521 13.08 23.8241L13.096 23.6481C13.096 23.6361 13.098 23.6221 13.1 23.6081C13.102 23.5941 13.104 23.5801 13.104 23.5681V23.5361C13.112 23.4481 13.128 23.3521 13.144 23.2561C13.152 23.1921 13.168 23.1201 13.184 23.0481L13.208 22.9361C13.56 21.2641 14.584 19.2961 16.24 17.0961C17.408 15.5521 18.488 14.4321 18.608 14.3121C18.624 14.2881 18.688 14.2321 18.752 14.1841C18.936 14.0481 19.192 14.0401 19.376 14.1841C19.44 14.2321 19.504 14.2881 19.504 14.2881C19.5101 14.2951 19.5289 14.315 19.5591 14.3469C19.8064 14.6082 20.8186 15.6774 21.888 17.0961C23.544 19.2961 24.56 21.2641 24.92 22.9521L24.944 23.0561C24.96 23.1281 24.976 23.2001 24.984 23.2721C25 23.3601 25.016 23.4561 25.024 23.5521C25.0265 23.5672 25.029 23.5807 25.0312 23.5928C25.0362 23.6194 25.04 23.6397 25.04 23.6561ZM23.1919 24.1361L23.1999 24.0081C23.1999 23.9243 23.1938 23.8466 23.187 23.759C23.186 23.7463 23.185 23.7333 23.1839 23.7201L23.1599 23.5361C23.1519 23.4401 23.0959 23.3521 23.0239 23.2961C22.9519 23.2401 22.8479 23.2081 22.7679 23.2241C22.6719 23.2401 22.5839 23.2801 22.5279 23.3601C22.4719 23.4321 22.4399 23.5281 22.4559 23.6161L22.4799 23.7841C22.4879 23.8641 22.4879 23.9361 22.4879 24.0081V24.2241C22.4839 24.2441 22.4819 24.2661 22.4799 24.2881C22.4779 24.3101 22.4759 24.3321 22.4719 24.3521L22.4639 24.4321C22.4639 24.4654 22.4563 24.5025 22.4489 24.5382C22.4456 24.5539 22.4424 24.5694 22.4399 24.5841L22.4319 24.6401C22.425 24.6643 22.4196 24.687 22.4144 24.7089C22.4075 24.7376 22.401 24.7649 22.3919 24.7921L22.3759 24.8561L22.3039 25.0721C22.3005 25.0808 22.297 25.0899 22.2934 25.0991C22.2806 25.1326 22.2667 25.1688 22.2479 25.2001C22.2319 25.2241 22.216 25.2561 22.184 25.3201L22.1439 25.3921C22.129 25.427 22.1079 25.4618 22.0844 25.5006C22.0701 25.524 22.055 25.5489 22.0399 25.5761L22.0319 25.5921C21.976 25.6721 21.9199 25.7521 21.8479 25.8401L21.8239 25.8721C21.76 25.9441 21.6959 26.0161 21.6159 26.0961C21.5667 26.1454 21.5137 26.1909 21.4621 26.2352C21.4382 26.2557 21.4147 26.2759 21.3919 26.2961L21.3519 26.3281L21.1599 26.4721L21.0879 26.5201C21.0578 26.5369 21.029 26.555 20.9999 26.5734C20.9595 26.5989 20.9184 26.6249 20.8719 26.6481L20.6719 26.7521C20.6479 26.7641 20.6259 26.7741 20.6039 26.7841C20.5819 26.7941 20.5599 26.8041 20.5359 26.8161C20.488 26.8401 20.44 26.8561 20.392 26.8721L20.3519 26.8881C20.2639 26.9201 20.1919 26.9841 20.1519 27.0721C20.1119 27.1601 20.1039 27.2561 20.1359 27.3441C20.1839 27.4801 20.3199 27.5761 20.4639 27.5761C20.5039 27.5761 20.5519 27.5681 20.6159 27.5441L20.8079 27.4721C20.8557 27.4542 20.899 27.4319 20.9444 27.4084C20.9599 27.4004 20.9757 27.3923 20.9919 27.3841L21.0639 27.3521L21.1759 27.2961L21.2159 27.2721C21.3039 27.2241 21.3919 27.1681 21.4799 27.1121L21.5599 27.0561C21.6399 27.0001 21.7119 26.9441 21.7919 26.8801L21.8399 26.8401C21.9359 26.7601 22.0239 26.6801 22.1279 26.5761C22.2012 26.5028 22.2678 26.4228 22.34 26.3361C22.3466 26.3282 22.3532 26.3202 22.3599 26.3121L22.3919 26.2721C22.4799 26.1681 22.5439 26.0721 22.6239 25.9522C22.6719 25.8722 22.7119 25.8001 22.7519 25.7281L22.8159 25.6001C22.8399 25.5681 22.8559 25.5281 22.8719 25.4881C22.8821 25.4644 22.8909 25.442 22.9 25.4187C22.9124 25.3871 22.9255 25.3536 22.9439 25.3121L22.9679 25.2401C22.9732 25.2262 22.9784 25.2127 22.9835 25.1993C23.002 25.1514 23.0194 25.1062 23.0319 25.0561L23.0559 24.9841C23.0719 24.9121 23.0879 24.8481 23.1039 24.7841L23.1199 24.7201C23.1239 24.6881 23.1299 24.6561 23.1359 24.6241C23.1419 24.5921 23.1479 24.5601 23.1519 24.5281L23.1679 24.4081C23.1759 24.3601 23.1839 24.3121 23.1839 24.2641C23.1919 24.2161 23.1919 24.1761 23.1919 24.1361Z" fill="white"/>
<defs>
<filter id="filter0_i_3_16124" x="12.8229" y="45.6982" width="12.2782" height="5.6119" filterUnits="userSpaceOnUse" color-interpolation-filters="sRGB">
<feFlood flood-opacity="0" result="BackgroundImageFix"/>
<feBlend mode="normal" in="SourceGraphic" in2="BackgroundImageFix" result="shape"/>
<feColorMatrix in="SourceAlpha" type="matrix" values="0 0 0 0 0 0 0 0 0 0 0 0 0 0 0 0 0 0 127 0" result="hardAlpha"/>
<feMorphology radius="0.301286" operator="erode" in="SourceAlpha" result="effect1_innerShadow_3_16124"/>
<feOffset dy="1.50643"/>
<feGaussianBlur stdDeviation="0.753214"/>
<feComposite in2="hardAlpha" operator="arithmetic" k2="-1" k3="1"/>
<feColorMatrix type="matrix" values="0 0 0 0 1 0 0 0 0 0.964279 0 0 0 0 0.816749 0 0 0 0.237462 0"/>
<feBlend mode="normal" in2="shape" result="effect1_innerShadow_3_16124"/>
</filter>
</defs>
</svg>
