<svg width="375" height="551" viewBox="0 0 375 551" fill="none" xmlns="http://www.w3.org/2000/svg">
<path fill-rule="evenodd" clip-rule="evenodd" d="M0 0.255898V163.433C0 163.433 17.762 167.91 21.7341 137.558C25.7063 107.205 1.8084 33.8898 56.6857 17.0728C98.7489 8.10799 129.874 24.2472 129.874 24.2472C129.874 24.2472 201.181 47.8707 250 0.255898C183.532 -0.255877 0 0.255898 0 0.255898Z" fill="#4553FC"/>
<path fill-rule="evenodd" clip-rule="evenodd" d="M0 284.557C0 284.557 110.872 380.195 231.1 259.791C221.782 194.425 278.628 179.19 278.628 179.19C278.628 179.19 316.899 168.613 323.424 127.739C332.494 75.6059 375 55.0028 375 55.0028V387.897C375 387.897 337.293 383.59 278.628 449.07C219.963 514.55 130.767 524.587 130.767 524.587C89.8763 562.065 44.7512 549.368 0 541.1V284.557Z" fill="#74AFFF"/>
<path fill-rule="evenodd" clip-rule="evenodd" d="M122 263.551L109.029 251.013L106.963 253.631L119.211 264.955L122 263.551Z" fill="url(#paint0_linear)"/>
<path fill-rule="evenodd" clip-rule="evenodd" d="M98.7072 256.731L93.6079 260.156L92.0532 257.954L98.2 253.026L99.8177 255.938L98.7072 256.731Z" fill="url(#paint1_linear)"/>
<path fill-rule="evenodd" clip-rule="evenodd" d="M71.0876 256.731L63.5003 251.013L61.9817 253.026L70.2415 259.092L71.0876 256.731Z" fill="url(#paint2_linear)"/>
<ellipse rx="17" ry="17.0009" transform="matrix(-1 0 0 1 49 243.013)" fill="url(#paint3_linear)"/>
<circle r="5" transform="matrix(-1 0 0 1 49 240.012)" fill="#94C2FA"/>
<path fill-rule="evenodd" clip-rule="evenodd" d="M55.5236 248.834C55.5236 248.834 54.6066 244.352 48.0617 245.783C44.7837 246.926 45.1362 251.013 45.1362 251.013C46.9067 252.951 54.4128 252.645 55.5236 248.834Z" fill="#94C2FA"/>
<ellipse rx="10" ry="10.0005" transform="matrix(-0.984808 -0.173648 -0.173648 0.984808 105.415 251.597)" fill="url(#paint4_linear)"/>
<circle r="2.94118" transform="matrix(-0.984806 -0.173657 -0.173639 0.984809 105.722 249.859)" fill="#94C2FA"/>
<path fill-rule="evenodd" clip-rule="evenodd" d="M108.6 255.636C108.6 255.636 108.527 252.946 104.589 253.106C102.573 253.434 102.36 255.837 102.36 255.837C103.188 257.141 107.567 257.731 108.6 255.636Z" fill="#94C2FA"/>
<ellipse rx="12" ry="12.0006" transform="matrix(-1 0 0 1 82 261.013)" fill="url(#paint5_linear)"/>
<path fill-rule="evenodd" clip-rule="evenodd" d="M47.7407 168.72C47.7407 168.72 49.9508 195.094 45 205.18C48.0097 206.648 52.7065 209.004 52.7065 209.004C52.7065 209.004 59.7513 191.779 56.2289 166.911C52.1498 167.853 47.7407 168.72 47.7407 168.72Z" fill="white"/>
<path fill-rule="evenodd" clip-rule="evenodd" d="M52.0389 150.003L58.7671 144.417L68.5385 156.417L62.2042 161.75L52.0389 150.003Z" fill="white"/>
<path fill-rule="evenodd" clip-rule="evenodd" d="M75.9454 150.537L76.6943 159.248L105.467 156.186L104.224 198.314L94.8469 210.546L101.756 216.038L113 200.622L114.463 146.88L75.9454 150.537Z" fill="white"/>
<path fill-rule="evenodd" clip-rule="evenodd" d="M62.86 181.459C62.86 181.459 64.3105 200.37 77.7614 202.712C91.2123 205.054 98.3754 190.172 98.3754 190.172C99.9427 183.638 99.8982 177.307 98.3754 171.164L91.0425 179.062C91.0425 179.062 90.0758 193.12 82.5854 194.351C72.5183 194.766 71.5817 180.693 71.5817 180.693L62.86 181.459Z" fill="white"/>
<g filter="url(#filter0_d)">
<path fill-rule="evenodd" clip-rule="evenodd" d="M62.86 173.337L98.2189 169.636C98.2189 169.636 99.4465 177.648 91.0425 179.061C82.2622 179.631 71.5817 180.692 71.5817 180.692L62.86 181.459V173.337Z" fill="white"/>
</g>
<path fill-rule="evenodd" clip-rule="evenodd" d="M121.794 148.17L128.094 142.927L137.886 153.988L131.751 160.025L121.794 148.17Z" fill="white"/>
<path fill-rule="evenodd" clip-rule="evenodd" d="M154.555 149.752L164.126 138.017L170.823 142.927L161.378 155.284L154.555 149.752Z" fill="white"/>
<path fill-rule="evenodd" clip-rule="evenodd" d="M140.923 190.819L164.626 189.018V199.193C164.626 199.193 162.596 209.638 150.241 212.383C150.494 207.591 150.241 203.03 150.241 203.03C150.241 203.03 154.616 201.924 155.452 198.005C150.174 198.52 144.407 199.193 144.407 199.193V215.129L166.655 212.383L172.011 205.667L179.032 210.937L172.011 220.494L136.107 225.08V190.819H140.923Z" fill="white"/>
<g filter="url(#filter1_d)">
<path fill-rule="evenodd" clip-rule="evenodd" d="M143.531 142.189C143.531 142.189 143.767 186.1 113.454 207.425C113.948 209.114 117.882 215.128 117.882 215.128C144.764 197.929 151.013 170.823 152.572 141.464L143.531 142.189Z" fill="white"/>
</g>
<g filter="url(#filter2_d)">
<path fill-rule="evenodd" clip-rule="evenodd" d="M129.84 162.502V171.163L163.499 167.948V159.149L129.84 162.502Z" fill="white"/>
</g>
<g filter="url(#filter3_d)">
<path fill-rule="evenodd" clip-rule="evenodd" d="M119.885 177.059V185.562L177.974 180.154V171.164L119.885 177.059Z" fill="white"/>
</g>
<path fill-rule="evenodd" clip-rule="evenodd" d="M165.063 187.097L172.107 182.403C172.107 182.403 180.471 191.874 182.914 191.874C182.243 194.288 182.914 200.667 182.914 200.667C175.883 201.086 170.632 193.366 165.063 187.097Z" fill="white"/>
<path fill-rule="evenodd" clip-rule="evenodd" d="M181.967 141.464L188.899 136.073L198.976 148.35L192.062 153.988L181.967 141.464Z" fill="white"/>
<path fill-rule="evenodd" clip-rule="evenodd" d="M176.436 157.95V166.911L187.562 165.156V199.302L202.053 197.171V187.958L196.315 189.018V155.285L176.436 157.95Z" fill="white"/>
<path fill-rule="evenodd" clip-rule="evenodd" d="M206.715 136.073V176.362C206.715 176.362 205.914 205.178 195.385 215.129C196.964 217.21 202.053 221.73 202.053 221.73C202.053 221.73 214.075 206.401 215.237 177.293C216.398 148.186 215.237 142.928 215.237 142.928L253.459 140L252.328 194.323L246.596 203.03L253.459 207.049L260.737 197.376L262.133 130.628L206.715 136.073Z" fill="white"/>
<path fill-rule="evenodd" clip-rule="evenodd" d="M228.759 146.652V165.156L220.549 166.014V174.67L248.756 172.011V163.672L237.072 164.42V145.728L228.759 146.652Z" fill="white"/>
<g filter="url(#filter4_d)">
<path fill-rule="evenodd" clip-rule="evenodd" d="M222.063 153.99V162.255L245.56 160.741V152.201L222.578 153.99H222.063Z" fill="white"/>
</g>
<path fill-rule="evenodd" clip-rule="evenodd" d="M247.738 175.105L220.549 177.838C220.177 184.57 221.144 190.408 223.994 194.99C223.994 194.99 234.262 204.748 244.39 196.851C250.412 191.569 247.738 175.105 247.738 175.105ZM240.249 184.345L229.548 185.562C229.548 185.562 229.619 192.299 235.857 192.263C241.252 190.962 240.249 184.345 240.249 184.345Z" fill="white"/>
<path fill-rule="evenodd" clip-rule="evenodd" d="M288.93 125.006V162.256L278.826 163V195.027L313.343 192.264V183.481L287.273 185.711V170.767L302.301 169.238C302.301 169.238 301.222 173.827 295.076 173.827C294.979 174.451 295.076 182.346 295.076 182.346C295.076 182.346 307.895 183.191 311.477 169.238C311.819 162.942 310.301 160.017 310.301 160.017L297.767 161.233V125.006H288.93Z" fill="white"/>
<g filter="url(#filter5_d)">
<path fill-rule="evenodd" clip-rule="evenodd" d="M269.625 136.073V144.351L322.62 138.687V130.628L269.625 136.073Z" fill="white"/>
</g>
<path fill-rule="evenodd" clip-rule="evenodd" d="M278.826 145.728C278.826 145.728 268.119 159.374 265.574 160.199C265.593 161.006 270.642 167.405 270.642 167.405C270.642 167.405 283.598 157.506 286.846 148.637C283.638 147.236 278.826 145.728 278.826 145.728Z" fill="white"/>
<path fill-rule="evenodd" clip-rule="evenodd" d="M301.665 147.892L308.166 142.157C308.166 142.157 322.583 155.904 327.402 156.566C327.504 158.11 323.9 164.527 323.9 164.527C315.771 160.092 308.031 155.056 301.665 147.892Z" fill="white"/>
<path fill-rule="evenodd" clip-rule="evenodd" d="M268.06 200.383V209.083L326.542 202.867V194.265L268.06 200.383Z" fill="white"/>
<path fill-rule="evenodd" clip-rule="evenodd" d="M250 269.551L262.971 257.013L265.037 259.632L252.789 270.955L250 269.551Z" fill="url(#paint6_linear)"/>
<path fill-rule="evenodd" clip-rule="evenodd" d="M273.293 262.732L278.392 266.157L279.947 263.954L273.8 259.027L272.182 261.938L273.293 262.732Z" fill="url(#paint7_linear)"/>
<path fill-rule="evenodd" clip-rule="evenodd" d="M300.912 262.732L308.5 257.013L310.018 259.027L301.758 265.093L300.912 262.732Z" fill="url(#paint8_linear)"/>
<ellipse cx="323" cy="249.013" rx="17" ry="17.0009" fill="url(#paint9_linear)"/>
<circle cx="323" cy="246.012" r="5" fill="#94C2FA"/>
<path fill-rule="evenodd" clip-rule="evenodd" d="M316.476 254.834C316.476 254.834 317.393 250.352 323.938 251.783C327.216 252.926 326.864 257.013 326.864 257.013C325.093 258.951 317.587 258.645 316.476 254.834Z" fill="#94C2FA"/>
<ellipse cx="266.585" cy="257.597" rx="10" ry="10.0005" transform="rotate(-10 266.585 257.597)" fill="url(#paint10_linear)"/>
<circle r="2.94118" transform="matrix(0.984806 -0.173657 0.173639 0.984809 266.278 255.86)" fill="#94C2FA"/>
<path fill-rule="evenodd" clip-rule="evenodd" d="M263.4 261.636C263.4 261.636 263.473 258.946 267.411 259.107C269.427 259.434 269.64 261.838 269.64 261.838C268.812 263.141 264.433 263.731 263.4 261.636Z" fill="#94C2FA"/>
<ellipse cx="290" cy="267.014" rx="12" ry="12.0006" fill="url(#paint11_linear)"/>
<path fill-rule="evenodd" clip-rule="evenodd" d="M214 299.944L222.506 268.662C222.506 268.662 224.729 262.549 231.465 264.474C238.201 266.398 293.149 282.796 293.149 282.796C293.149 282.796 298.356 284.518 295.871 291.296C293.149 299.378 292.844 299.944 292.844 299.944L291.306 304.089L214 299.944Z" fill="url(#paint12_linear)"/>
<path fill-rule="evenodd" clip-rule="evenodd" d="M230.049 279.245L229.354 282.796L281.488 297.684L282.579 293.796L230.049 279.245Z" fill="#CEEAFF"/>
<path fill-rule="evenodd" clip-rule="evenodd" d="M237.632 295.485L253.9 299.945H265.682L239.431 291.989L237.632 295.485Z" fill="#CEEAFF"/>
<path fill-rule="evenodd" clip-rule="evenodd" d="M74.2829 300.431L70.7094 289.517C70.7094 289.517 68.2569 284.737 74.2829 282.517C80.309 280.297 124.64 266.296 124.64 266.296C124.64 266.296 127.468 264.798 126.51 271.216C127.738 276.816 133.636 300.998 133.636 300.998L74.2829 300.431Z" fill="#A5E1FF"/>
<path fill-rule="evenodd" clip-rule="evenodd" d="M82.318 292.35L83.4391 294.85L117.517 283.85L116.529 281.35L82.318 292.35Z" fill="#CEEAFF"/>
<path fill-rule="evenodd" clip-rule="evenodd" d="M85.0773 299.615L86.2281 301.272L118.693 291.795L117.517 289.693L85.0773 299.162" fill="#CEEAFF"/>
<path fill-rule="evenodd" clip-rule="evenodd" d="M126.957 301.175V262.04C126.957 262.04 127.136 251.545 138.093 249.221C149.174 248.805 207.149 249.221 207.149 249.221L219.879 262.105V301.741L126.957 301.175Z" fill="url(#paint13_linear)"/>
<path fill-rule="evenodd" clip-rule="evenodd" d="M113 301.175C113 301.175 116.668 283.585 126.957 275.74C126.773 278.684 126.957 285.223 126.957 285.223C126.957 285.223 124.65 289.133 124.65 293.696C124.646 296.363 131.64 285.63 131.64 285.63C131.64 285.63 133.881 282.863 137.468 286.01C140.379 288.812 129.734 301.175 129.734 301.175H113Z" fill="#F2AA9B"/>
<path fill-rule="evenodd" clip-rule="evenodd" d="M126.957 285.223C126.957 285.223 123.696 291.454 125.087 294.276C125.547 295.245 126.957 291.669 126.957 291.669V285.223Z" fill="#DC9787"/>
<path fill-rule="evenodd" clip-rule="evenodd" d="M131.271 287.922C131.271 287.922 132.871 285.715 133.9 285.715C134.928 285.715 136.894 287.802 136.894 288.478C136.894 289.155 136.67 291.684 133.316 291.086C131.304 289.778 131.271 287.922 131.271 287.922Z" fill="#FDD3D1"/>
<path fill-rule="evenodd" clip-rule="evenodd" d="M205.001 271.959L236.592 299.48L240.999 295.073L209.366 267.039L205.001 271.959Z" fill="#FF3B3B"/>
<path fill-rule="evenodd" clip-rule="evenodd" d="M207.149 269.529L209.366 267.039L240.999 295.073L238.659 297.28L207.149 269.529Z" fill="#FF5E61"/>
<path fill-rule="evenodd" clip-rule="evenodd" d="M198.325 262.104L205.001 271.958L209.366 266.914L198.325 262.104Z" fill="white"/>
<mask id="mask0" mask-type="alpha" maskUnits="userSpaceOnUse" x="198" y="262" width="12" height="10">
<path fill-rule="evenodd" clip-rule="evenodd" d="M198.325 262.104L205.001 271.958L209.366 266.914L198.325 262.104Z" fill="white"/>
</mask>
<g mask="url(#mask0)">
<path fill-rule="evenodd" clip-rule="evenodd" d="M198.876 265.016L201.243 262.104L197.879 261.039L198.876 265.016Z" fill="black"/>
</g>
<path fill-rule="evenodd" clip-rule="evenodd" d="M207.149 255.039C207.149 255.039 207.237 261.618 215.118 263.657C217.657 263.948 219.879 263.657 219.879 263.657V262.039C212.625 262.751 209.354 259.435 207.149 255.039Z" fill="#8FCFFD"/>
<path fill-rule="evenodd" clip-rule="evenodd" d="M206.368 249.362C206.368 249.362 205.898 263.007 219.879 262.039C211.975 254.895 206.368 249.362 206.368 249.362Z" fill="#D3EDFF"/>
<path fill-rule="evenodd" clip-rule="evenodd" d="M136.894 271.96V277.168H205.001L201.243 271.96H136.894Z" fill="#CEEAFF"/>
<rect x="136.2" y="282.092" width="74" height="5" fill="#CEEAFF"/>
<rect x="136.2" y="293.093" width="74" height="5" fill="#CEEAFF"/>
<defs>
<filter id="filter0_d" x="58.86" y="167.636" width="43.4216" height="19.8222" filterUnits="userSpaceOnUse" color-interpolation-filters="sRGB">
<feFlood flood-opacity="0" result="BackgroundImageFix"/>
<feColorMatrix in="SourceAlpha" type="matrix" values="0 0 0 0 0 0 0 0 0 0 0 0 0 0 0 0 0 0 127 0" result="hardAlpha"/>
<feOffset dy="2"/>
<feGaussianBlur stdDeviation="2"/>
<feColorMatrix type="matrix" values="0 0 0 0 0.0569334 0 0 0 0 0.506361 0 0 0 0 0.937811 0 0 0 0.633495 0"/>
<feBlend mode="normal" in2="BackgroundImageFix" result="effect1_dropShadow"/>
<feBlend mode="normal" in="SourceGraphic" in2="effect1_dropShadow" result="shape"/>
</filter>
<filter id="filter1_d" x="109.454" y="139.464" width="47.1175" height="81.6645" filterUnits="userSpaceOnUse" color-interpolation-filters="sRGB">
<feFlood flood-opacity="0" result="BackgroundImageFix"/>
<feColorMatrix in="SourceAlpha" type="matrix" values="0 0 0 0 0 0 0 0 0 0 0 0 0 0 0 0 0 0 127 0" result="hardAlpha"/>
<feOffset dy="2"/>
<feGaussianBlur stdDeviation="2"/>
<feColorMatrix type="matrix" values="0 0 0 0 0.0569334 0 0 0 0 0.506361 0 0 0 0 0.937811 0 0 0 0.633495 0"/>
<feBlend mode="normal" in2="BackgroundImageFix" result="effect1_dropShadow"/>
<feBlend mode="normal" in="SourceGraphic" in2="effect1_dropShadow" result="shape"/>
</filter>
<filter id="filter2_d" x="125.84" y="157.149" width="41.6591" height="20.0144" filterUnits="userSpaceOnUse" color-interpolation-filters="sRGB">
<feFlood flood-opacity="0" result="BackgroundImageFix"/>
<feColorMatrix in="SourceAlpha" type="matrix" values="0 0 0 0 0 0 0 0 0 0 0 0 0 0 0 0 0 0 127 0" result="hardAlpha"/>
<feOffset dy="2"/>
<feGaussianBlur stdDeviation="2"/>
<feColorMatrix type="matrix" values="0 0 0 0 0.0569334 0 0 0 0 0.506361 0 0 0 0 0.937811 0 0 0 0.633495 0"/>
<feBlend mode="normal" in2="BackgroundImageFix" result="effect1_dropShadow"/>
<feBlend mode="normal" in="SourceGraphic" in2="effect1_dropShadow" result="shape"/>
</filter>
<filter id="filter3_d" x="115.885" y="169.164" width="66.089" height="22.3977" filterUnits="userSpaceOnUse" color-interpolation-filters="sRGB">
<feFlood flood-opacity="0" result="BackgroundImageFix"/>
<feColorMatrix in="SourceAlpha" type="matrix" values="0 0 0 0 0 0 0 0 0 0 0 0 0 0 0 0 0 0 127 0" result="hardAlpha"/>
<feOffset dy="2"/>
<feGaussianBlur stdDeviation="2"/>
<feColorMatrix type="matrix" values="0 0 0 0 0.0569334 0 0 0 0 0.506361 0 0 0 0 0.937811 0 0 0 0.633495 0"/>
<feBlend mode="normal" in2="BackgroundImageFix" result="effect1_dropShadow"/>
<feBlend mode="normal" in="SourceGraphic" in2="effect1_dropShadow" result="shape"/>
</filter>
<filter id="filter4_d" x="218.063" y="150.201" width="31.4965" height="18.0545" filterUnits="userSpaceOnUse" color-interpolation-filters="sRGB">
<feFlood flood-opacity="0" result="BackgroundImageFix"/>
<feColorMatrix in="SourceAlpha" type="matrix" values="0 0 0 0 0 0 0 0 0 0 0 0 0 0 0 0 0 0 127 0" result="hardAlpha"/>
<feOffset dy="2"/>
<feGaussianBlur stdDeviation="2"/>
<feColorMatrix type="matrix" values="0 0 0 0 0.0569334 0 0 0 0 0.506361 0 0 0 0 0.937811 0 0 0 0.633495 0"/>
<feBlend mode="normal" in2="BackgroundImageFix" result="effect1_dropShadow"/>
<feBlend mode="normal" in="SourceGraphic" in2="effect1_dropShadow" result="shape"/>
</filter>
<filter id="filter5_d" x="265.625" y="128.628" width="60.9952" height="21.7226" filterUnits="userSpaceOnUse" color-interpolation-filters="sRGB">
<feFlood flood-opacity="0" result="BackgroundImageFix"/>
<feColorMatrix in="SourceAlpha" type="matrix" values="0 0 0 0 0 0 0 0 0 0 0 0 0 0 0 0 0 0 127 0" result="hardAlpha"/>
<feOffset dy="2"/>
<feGaussianBlur stdDeviation="2"/>
<feColorMatrix type="matrix" values="0 0 0 0 0.0569334 0 0 0 0 0.506361 0 0 0 0 0.937811 0 0 0 0.633495 0"/>
<feBlend mode="normal" in2="BackgroundImageFix" result="effect1_dropShadow"/>
<feBlend mode="normal" in="SourceGraphic" in2="effect1_dropShadow" result="shape"/>
</filter>
<linearGradient id="paint0_linear" x1="115.421" y1="257.971" x2="113.637" y2="259.847" gradientUnits="userSpaceOnUse">
<stop stop-color="#6B9FFD"/>
<stop offset="1" stop-color="#508ED4"/>
</linearGradient>
<linearGradient id="paint1_linear" x1="97.0798" y1="255.141" x2="97.9936" y2="257.302" gradientUnits="userSpaceOnUse">
<stop stop-color="#6B9FFD"/>
<stop offset="1" stop-color="#508ED4"/>
</linearGradient>
<linearGradient id="paint2_linear" x1="67.1033" y1="255.045" x2="66.0733" y2="256.178" gradientUnits="userSpaceOnUse">
<stop stop-color="#6B9FFD"/>
<stop offset="1" stop-color="#508ED4"/>
</linearGradient>
<linearGradient id="paint3_linear" x1="2.96189" y1="14.1735" x2="16.5829" y2="35.4834" gradientUnits="userSpaceOnUse">
<stop stop-color="#9AE6FC"/>
<stop offset="1" stop-color="#2A6FFD"/>
</linearGradient>
<linearGradient id="paint4_linear" x1="1.74229" y1="8.33737" x2="9.75465" y2="20.8726" gradientUnits="userSpaceOnUse">
<stop stop-color="#9AE6FC"/>
<stop offset="1" stop-color="#2A6FFD"/>
</linearGradient>
<linearGradient id="paint5_linear" x1="2.09075" y1="10.0049" x2="11.7056" y2="25.0471" gradientUnits="userSpaceOnUse">
<stop stop-color="#9AE6FC"/>
<stop offset="1" stop-color="#2A6FFD"/>
</linearGradient>
<linearGradient id="paint6_linear" x1="256.579" y1="263.971" x2="258.363" y2="265.847" gradientUnits="userSpaceOnUse">
<stop stop-color="#6B9FFD"/>
<stop offset="1" stop-color="#508ED4"/>
</linearGradient>
<linearGradient id="paint7_linear" x1="274.92" y1="261.141" x2="274.006" y2="263.302" gradientUnits="userSpaceOnUse">
<stop stop-color="#6B9FFD"/>
<stop offset="1" stop-color="#508ED4"/>
</linearGradient>
<linearGradient id="paint8_linear" x1="304.897" y1="261.045" x2="305.927" y2="262.178" gradientUnits="userSpaceOnUse">
<stop stop-color="#6B9FFD"/>
<stop offset="1" stop-color="#508ED4"/>
</linearGradient>
<linearGradient id="paint9_linear" x1="308.962" y1="246.186" x2="322.583" y2="267.495" gradientUnits="userSpaceOnUse">
<stop stop-color="#9AE6FC"/>
<stop offset="1" stop-color="#2A6FFD"/>
</linearGradient>
<linearGradient id="paint10_linear" x1="258.327" y1="255.934" x2="266.339" y2="268.469" gradientUnits="userSpaceOnUse">
<stop stop-color="#9AE6FC"/>
<stop offset="1" stop-color="#2A6FFD"/>
</linearGradient>
<linearGradient id="paint11_linear" x1="280.091" y1="265.018" x2="289.706" y2="280.06" gradientUnits="userSpaceOnUse">
<stop stop-color="#9AE6FC"/>
<stop offset="1" stop-color="#2A6FFD"/>
</linearGradient>
<linearGradient id="paint12_linear" x1="214.325" y1="264.013" x2="214.325" y2="303.774" gradientUnits="userSpaceOnUse">
<stop stop-color="#A8E1FF"/>
<stop offset="1" stop-color="#A2DEFF"/>
</linearGradient>
<linearGradient id="paint13_linear" x1="126.957" y1="249.013" x2="126.957" y2="301.741" gradientUnits="userSpaceOnUse">
<stop stop-color="#B0E8FF"/>
<stop offset="1" stop-color="#79D0FD"/>
</linearGradient>
</defs>
</svg>
