<svg width="25" height="24" viewBox="0 0 25 24" fill="none" xmlns="http://www.w3.org/2000/svg">
<path d="M21.1998 19.7H4.59984C3.19985 19.7 2.09985 18.6 2.09985 17.2V8.04997C2.09985 6.89996 3.04985 5.94997 4.19985 5.94997H7.59984C7.89984 5.94997 8.19984 5.69996 8.19984 5.34997V5.24996C8.19984 4.09995 9.14985 3.19995 10.2998 3.19995H15.9498C16.4999 3.19995 17.0498 3.39997 17.4498 3.79995C17.8499 4.19996 18.0498 4.74997 18.0498 5.29995C18.0498 5.44995 18.0998 5.59995 18.1998 5.74995C18.2999 5.84996 18.4499 5.94997 18.5999 5.94997H21.5498C22.6998 5.94997 23.6498 6.89996 23.6498 8.04997V17.2C23.6999 18.55 22.5498 19.7 21.1998 19.7ZM4.19985 7.44997C3.84984 7.44997 3.59985 7.69995 3.59985 8.04997V17.2C3.59985 17.75 4.04985 18.2 4.59984 18.2H21.1998C21.7499 18.2 22.1999 17.75 22.1999 17.2V8.04997C22.1999 7.69995 21.9498 7.44997 21.5999 7.44997H18.6498C18.0998 7.44997 17.5499 7.24995 17.1498 6.79995C16.7498 6.39997 16.5498 5.84996 16.5498 5.29995C16.5498 5.14995 16.4999 4.99995 16.3998 4.84995C16.2998 4.74997 16.1498 4.64996 15.9998 4.64996H10.2998C9.99984 4.64996 9.69984 4.89997 9.69984 5.24996V5.34997C9.69984 6.49995 8.74985 7.39995 7.59984 7.39995H4.19985V7.44997Z" fill="#2C68FF"/>
<path opacity="0.4" d="M13 15.8C10.95 15.8 9.25 14.1001 9.25 12.05C9.25 10 10.95 8.30005 13 8.30005C15.05 8.30005 16.75 10.0001 16.75 12.05C16.75 14.15 15.1 15.8 13 15.8ZM13 9.80005C11.75 9.80005 10.75 10.8001 10.75 12.05C10.75 13.3 11.75 14.3 13 14.3C14.25 14.3 15.25 13.3001 15.25 12.05C15.25 10.85 14.25 9.80005 13 9.80005Z" fill="#2C68FF"/>
</svg>
