<svg width="25" height="24" viewBox="0 0 25 24" fill="none" xmlns="http://www.w3.org/2000/svg">
<path d="M21.1998 19.7002H4.59984C3.19985 19.7002 2.09985 18.6002 2.09985 17.2002V8.05021C2.09985 6.9002 3.04985 5.95021 4.19985 5.95021H7.59984C7.89984 5.95021 8.19984 5.7002 8.19984 5.35021V5.2502C8.19984 4.1002 9.14985 3.2002 10.2998 3.2002H15.9498C16.4999 3.2002 17.0498 3.40021 17.4498 3.8002C17.8499 4.2002 18.0498 4.75021 18.0498 5.3002C18.0498 5.4502 18.0998 5.60019 18.1998 5.7502C18.2999 5.8502 18.4499 5.95021 18.5999 5.95021H21.5498C22.6998 5.95021 23.6498 6.9002 23.6498 8.05021V17.2002C23.6999 18.5502 22.5498 19.7002 21.1998 19.7002ZM4.19985 7.45021C3.84984 7.45021 3.59985 7.7002 3.59985 8.05021V17.2002C3.59985 17.7502 4.04985 18.2002 4.59984 18.2002H21.1998C21.7499 18.2002 22.1999 17.7502 22.1999 17.2002V8.05021C22.1999 7.7002 21.9498 7.45021 21.5999 7.45021H18.6498C18.0998 7.45021 17.5499 7.2502 17.1498 6.8002C16.7498 6.40021 16.5498 5.8502 16.5498 5.3002C16.5498 5.1502 16.4999 5.0002 16.3998 4.8502C16.2998 4.75021 16.1498 4.6502 15.9998 4.6502H10.2998C9.99984 4.6502 9.69984 4.90021 9.69984 5.2502V5.35021C9.69984 6.5002 8.74985 7.4002 7.59984 7.4002H4.19985V7.45021Z" fill="#848D96"/>
<path opacity="0.4" d="M13 15.7998C10.95 15.7998 9.25 14.0998 9.25 12.0498C9.25 9.9998 10.95 8.2998 13 8.2998C15.05 8.2998 16.75 9.99982 16.75 12.0498C16.75 14.1498 15.1 15.7998 13 15.7998ZM13 9.7998C11.75 9.7998 10.75 10.7998 10.75 12.0498C10.75 13.2998 11.75 14.2998 13 14.2998C14.25 14.2998 15.25 13.2998 15.25 12.0498C15.25 10.8498 14.25 9.7998 13 9.7998Z" fill="#848D96"/>
</svg>
